<?xml version="1.0" encoding="UTF-8" standalone="no"?>
<svg
   width="256"
   height="128"
   viewBox="0 0 256 128"
   fill="none"
   stroke="#fff"
   stroke-linejoin="round"
   stroke-width="2.862"
   version="1.1"
   id="svg22"
   sodipodi:docname="weapon_rats.svg"
   xml:space="preserve"
   inkscape:version="1.2.2 (732a01da63, 2022-12-09)"
   xmlns:inkscape="http://www.inkscape.org/namespaces/inkscape"
   xmlns:sodipodi="http://sodipodi.sourceforge.net/DTD/sodipodi-0.dtd"
   xmlns="http://www.w3.org/2000/svg"
   xmlns:svg="http://www.w3.org/2000/svg"><defs
     id="defs26"><filter
       id="mask-powermask-path-effect2906_inverse"
       inkscape:label="filtermask-powermask-path-effect2906"
       style="color-interpolation-filters:sRGB"
       height="100"
       width="100"
       x="-50"
       y="-50"><feColorMatrix
         id="mask-powermask-path-effect2906_primitive1"
         values="1"
         type="saturate"
         result="fbSourceGraphic" /><feColorMatrix
         id="mask-powermask-path-effect2906_primitive2"
         values="-1 0 0 0 1 0 -1 0 0 1 0 0 -1 0 1 0 0 0 1 0 "
         in="fbSourceGraphic" /></filter><filter
       id="mask-powermask-path-effect2921_inverse"
       inkscape:label="filtermask-powermask-path-effect2921"
       style="color-interpolation-filters:sRGB"
       height="100"
       width="100"
       x="-50"
       y="-50"><feColorMatrix
         id="mask-powermask-path-effect2921_primitive1"
         values="1"
         type="saturate"
         result="fbSourceGraphic" /><feColorMatrix
         id="mask-powermask-path-effect2921_primitive2"
         values="-1 0 0 0 1 0 -1 0 0 1 0 0 -1 0 1 0 0 0 1 0 "
         in="fbSourceGraphic" /></filter></defs><sodipodi:namedview
     id="namedview24"
     pagecolor="#505050"
     bordercolor="#ffffff"
     borderopacity="1"
     inkscape:showpageshadow="0"
     inkscape:pageopacity="0"
     inkscape:pagecheckerboard="1"
     inkscape:deskcolor="#505050"
     showgrid="false"
     inkscape:zoom="8"
     inkscape:cx="95.5"
     inkscape:cy="70.8125"
     inkscape:current-layer="svg22" /><path
     id="path1451-2-0"
     style="display:inline;fill:none;fill-opacity:1;stroke:#ffffff;stroke-width:2.77592;stroke-linecap:butt;stroke-linejoin:miter;stroke-dasharray:none;stroke-dashoffset:114.994;stroke-opacity:1;paint-order:stroke markers fill"
     d="m 74.382587,48.122043 0.02043,-4.443667 c 0,0 0.1075,-1.601415 0.324228,-2.479693 0.360109,-1.459326 0.942231,-2.811611 0.942231,-2.811611 0.418483,2.067711 1.01538,4.134774 2.057438,5.842721 0.433553,0.707459 1.658374,1.627752 1.658374,1.627752 z m 22.926309,-16.974896 0.02043,-4.443678 c 0,0 0.1075,-1.601418 0.324228,-2.479698 0.36011,-1.459329 0.942234,-2.811618 0.942234,-2.811618 0.418482,2.067716 1.015379,4.134783 2.057442,5.842735 0.43355,0.707461 1.65838,1.627756 1.65838,1.627756 z m 56.679814,-0.183029 -0.0204,-4.443674 c 0,0 -0.1075,-1.601418 -0.32424,-2.479697 -0.36011,-1.459328 -0.94223,-2.811616 -0.94223,-2.811616 -0.41848,2.067714 -1.01538,4.134781 -2.05744,5.842731 -0.43355,0.70746 -1.65838,1.627755 -1.65838,1.627755 z m 21.60393,13.023679 -0.0204,-4.443674 c 0,0 -0.1075,-1.601418 -0.32424,-2.479697 -0.36011,-1.459328 -0.94223,-2.811616 -0.94223,-2.811616 -0.41848,2.067714 -1.01538,4.134781 -2.05744,5.842731 -0.43355,0.70746 -1.65838,1.627755 -1.65838,1.627755 z" /><path
     id="path2446"
     style="opacity:1;stroke-width:3.93489;stroke-linecap:round;stroke-dashoffset:114.994;paint-order:stroke markers fill"
     d="m 125.16804,64.781349 c 0,3.37479 -2.73581,6.110598 -6.1106,6.110594 -3.37479,-2e-6 -6.11059,-2.735808 -6.11059,-6.110594 0,-3.374786 2.7358,-6.110591 6.11059,-6.110593 3.37479,-4e-6 6.1106,2.735803 6.1106,6.110593 z m -8.25707,7.43793 -0.73102,9.350312 c 0,0 -2.8299,0.880811 -5.40229,1.670243 -2.62561,0.805765 -3.81064,2.306297 -3.58592,4.472933 0.21654,2.087704 2.57842,3.327184 4.1326,3.079927 3.27117,-0.309051 9.23775,-1.469762 9.23775,-1.469762 l -3.29287,6.314785 0.0982,2.884993 c 0,0 3.64324,10.66797 4.13374,12.34183 0.49049,1.67386 2.78543,2.85075 4.40314,2.4183 1.76717,-0.4724 3.4723,-2.08068 2.85019,-4.68945 -0.62211,-2.60876 -3.05007,-8.31628 -3.05007,-8.31628 l 4.13466,-3.494084 5.47407,7.686994 c 0,0 8.13883,-2.36506 12.64204,-4.37441 1.24942,-0.5575 2.80639,-2.130448 2.58033,-4.270074 -0.23008,-2.177602 -2.57198,-3.611232 -4.68243,-3.00896 -2.74524,0.783424 -5.11659,1.299011 -5.11659,1.299011 l -2.18873,-4.355374 -6.81922,-11.10477 c 3.26013,5.646717 3.80526,5.840809 6.84508,11.105929 0,0 1.78263,-0.04905 2.37085,-0.438844 2.91593,-1.932301 3.32783,-5.500601 2.43738,-7.600536 -1.59125,-3.752624 -5.93561,-9.643065 -5.93561,-9.643065 0,0 -11.75285,-3.422187 -12.16463,-3.257474"
     sodipodi:nodetypes="sssssccssccccssscccsssccccsscc" /><path
     id="path6223-5-2"
     style="stroke-width:3.21;stroke-linecap:round;stroke-dashoffset:114.994;paint-order:stroke markers fill"
     d="m 150.11028,41.464466 a 8.485281,8.485281 0 0 1 -8.48528,8.485281 8.485281,8.485281 0 0 1 -8.48528,-8.485281 8.485281,8.485281 0 0 1 8.48528,-8.485281 8.485281,8.485281 0 0 1 8.48528,8.485281 z m -36.15533,1.612438 a 8.485281,8.485281 0 0 1 -8.48528,8.485281 8.485281,8.485281 0 0 1 -8.485278,-8.485281 8.485281,8.485281 0 0 1 8.485278,-8.485281 8.485281,8.485281 0 0 1 8.48528,8.485281 z M 95.651808,58.623371 a 8.485281,8.485281 0 0 1 -8.485281,8.485281 8.485281,8.485281 0 0 1 -8.485281,-8.485281 8.485281,8.485281 0 0 1 8.485281,-8.485281 8.485281,8.485281 0 0 1 8.485281,8.485281 z m 1.980411,54.881659 c -0.109147,-5.50504 0.108717,-7.86777 0.0046,-13.3927 C 97.580107,95.982776 96.522155,91.565175 94.924678,87.544733 90.242078,76.717087 77.803606,72.588601 73.902523,61.830662 71.037642,54.79422 73.289547,47.778748 80.529616,45.640018 c 2.357056,-0.230463 5.106339,-0.244805 7.724678,-0.253267 0,0 1.185923,0.04489 1.562314,-0.331605 0.420403,-0.420521 0.365024,-1.365379 0.369889,-1.7451 0.215483,-9.174084 8.365066,-15.343542 17.013223,-14.60095 10.76642,1.243971 11.87852,4.928838 13.94712,14.553591 0.26631,1.136397 1.06805,2.318219 2.52394,2.202923 1.12157,-0.08882 1.9356,-1.232375 2.09723,-2.457261 0.31773,-3.344514 0.2911,-7.303754 1.90067,-9.627936 5.01668,-7.118636 18.71415,-8.843618 27.43682,-1.700374 2.7865,2.758054 2.842,3.145069 3.7689,6.773075 0.12022,0.495514 0.31485,1.563287 0.90398,1.993995 0.2798,0.204567 0.83194,0.150571 1.03267,0.121826 1.88973,0.146787 2.33804,0.213445 5.19457,0.49561 9.3604,0.92461 10.67733,5.675465 11.17419,11.5135 0.78636,13.871513 -12.19743,21.253217 -16.72372,29.348616 -4.88861,10.123271 -1.1435,18.076679 -1.00695,26.902659 -0.003,1.24842 0.0824,3.51417 0.0784,4.7626 m 12.46662,-59.325677 a 8.485281,8.485281 0 0 1 -8.48528,8.485281 8.485281,8.485281 0 0 1 -8.48528,-8.485281 8.485281,8.485281 0 0 1 8.48528,-8.485281 8.485281,8.485281 0 0 1 8.48528,8.485281 z" /></svg>
